<svg viewBox="0 0 512 512" xmlns="http://www.w3.org/2000/svg"><path d="m369.14 256.14a105.1 105.1 0 0 0 -7.34-23.33 64.4 64.4 0 0 0 -12.66 3.33 105.64 105.64 0 0 0 -19.9-44.46 106 106 0 0 0 -170.24 84.32c0 2.72.11 5.41.31 8.08a50 50 0 0 0 -58.23 71.83 49.78 49.78 0 0 0 23.92 6.09h247a65 65 0 0 0 54.85-99.85 65 65 0 0 0 -57.71-6z" fill="#b6c4cf"/><g fill="none" stroke="#02005c" stroke-linecap="round" stroke-width="20"><path d="m146.5 216.81c-.07.19-.15.37-.22.56s-.15.36-.22.55" stroke-linejoin="round"/><path d="m436.87 300.41c1.86-33.07-22.91-63.16-55.72-67.76a65.39 65.39 0 0 0 -32 3.5c-6.45-34.08-30-62.91-61.32-77.47-43.83-21.68-100.83-4.68-128.98 35.56" stroke-miterlimit="10"/><path d="m416.65 344.24a64.67 64.67 0 0 0 13.64-18.62" stroke-miterlimit="10"/><path d="m139.83 242.7a107.71 107.71 0 0 0 -.53 21.39 50.48 50.48 0 0 0 -59.3 26.13 48.32 48.32 0 0 0 0 43.78c3 5 6 11 11 15a83.42 83.42 0 0 0 12 8 120.9 120.9 0 0 0 18 5q129 1.5 258 0c5 0 11-3 15.92-4.16" stroke-miterlimit="10"/></g></svg>