<svg height="64" width="64" xmlns="http://www.w3.org/2000/svg" xmlns:xlink="http://www.w3.org/1999/xlink"><filter id="a" height="200%" width="200%"><feGaussianBlur in="SourceAlpha" stdDeviation="3"/><feOffset dx="0" dy="4" result="offsetblur"/><feComponentTransfer><feFuncA slope="0.05" type="linear"/></feComponentTransfer><feMerge><feMergeNode/><feMergeNode in="SourceGraphic"/></feMerge></filter><g filter="url(#a)"><g stroke="#ffa500" stroke-width="2" transform="translate(32 32)"><g fill="none" stroke-linecap="round"><path d="m0 0v3" transform="translate(0 9)"/><path d="m0 0v3" transform="matrix(.70710678 .70710678 -.70710678 .70710678 -6.36396102 6.36396102)"/><path d="m0 0v3" transform="matrix(0 1 -1 0 -9 0)"/><path d="m0 0v3" transform="matrix(-.70710678 .70710678 -.70710678 -.70710678 -6.36396102 -6.36396102)"/><path d="m0 0v3" transform="matrix(-1 0 0 -1 0 -9)"/><path d="m0 0v3" transform="matrix(-.70710678 -.70710678 .70710678 -.70710678 6.36396102 -6.36396102)"/><path d="m0 0v3" transform="matrix(0 -1 1 0 9 0)"/><path d="m0 0v3" transform="matrix(.70710678 -.70710678 .70710678 .70710678 6.36396102 6.36396102)"/></g><circle fill="#ffa500" r="5"/></g></g></svg>