<svg viewBox="0 0 512 512" xmlns="http://www.w3.org/2000/svg"><path d="m276 170a106 106 0 0 0 -84.28 170.28 106 106 0 0 0 148.56-148.56 105.53 105.53 0 0 0 -64.28-21.72z" fill="#f7ad1e"/><g fill="none" stroke="#02005c" stroke-linecap="round" stroke-linejoin="round" stroke-width="20"><path d="m150.9 242.12a107.63 107.63 0 0 0 -.9 13.88 106 106 0 1 0 19.59-61.37"/><path d="m157.56 216.68c-.17.41-.34.81-.5 1.22"/><path d="m256 64v59"/><path d="m256 389v58.99"/><path d="m120.24 120.24 41.72 41.71"/><path d="m350.04 350.04 41.72 41.72"/><path d="m64 256h59"/><path d="m389 256h59"/><path d="m120.24 391.76 41.72-41.72"/><path d="m350.04 161.95 41.72-41.71"/></g></svg>